<svg class="main-svg" xmlns="http://www.w3.org/2000/svg" xmlns:xlink="http://www.w3.org/1999/xlink" width="3600" height="1500" style="" viewBox="0 0 1200 500"><rect x="0" y="0" width="1200" height="500" style="fill: rgb(0, 0, 0); fill-opacity: 0;"/><defs id="defs-9405e7"><g class="clips"><clipPath id="clip9405e7xyplot" class="plotclip"><rect width="1033" height="303"/></clipPath><clipPath class="axesclip" id="clip9405e7x"><rect x="87" y="0" width="1033" height="500"/></clipPath><clipPath class="axesclip" id="clip9405e7y"><rect x="0" y="100" width="1200" height="303"/></clipPath><clipPath class="axesclip" id="clip9405e7xy"><rect x="87" y="100" width="1033" height="303"/></clipPath></g><g class="gradients"/></defs><g class="bglayer"><rect class="bg" x="87" y="100" width="1033" height="303" style="fill: rgb(0, 0, 0); fill-opacity: 0; stroke-width: 0;"/></g><g class="layer-below"><g class="imagelayer"/><g class="shapelayer"/></g><g class="cartesianlayer"><g class="subplot xy"><g class="layer-subplot"><g class="shapelayer"/><g class="imagelayer"/></g><g class="gridlayer"><g class="x"/><g class="y"/></g><g class="zerolinelayer"/><path class="xlines-below"/><path class="ylines-below"/><g class="overlines-below"/><g class="xaxislayer-below"/><g class="yaxislayer-below"/><g class="overaxes-below"/><g class="plot" transform="translate(87,100)" clip-path="url('#clip9405e7xyplot')"><g class="scatterlayer mlayer"><g class="trace scatter tracee13f7a" style="stroke-miterlimit: 2;"><g class="fills"><g><path class="js-fill" d="M1033,303L0,303L0,268.32L124.67,267.5L142.48,267.63L516.5,267.3L534.31,267.28L694.6,267.21L712.41,267.02L1033,266.42" style="fill: rgb(145, 195, 74); fill-opacity: 0.5; stroke-width: 0;"/></g><g><path class="js-fill" d="M0,42.36L17.81,39.19L35.62,37.48L71.24,35.73L89.05,37.38L106.86,34.59L124.67,33.53L160.29,32.13L178.1,33.02L195.91,33.84L213.72,32.31L231.53,33.06L249.34,32.99L267.16,35.42L284.97,32.2L320.59,34.82L338.4,34.01L356.21,32.46L374.02,34.13L391.83,31.5L409.64,30.22L445.26,30.73L463.07,30.43L480.88,31.74L498.69,30.54L534.31,30.12L552.12,31.41L569.93,30.74L587.74,31.71L623.36,29.42L641.17,28.94L658.98,28.85L676.79,34.37L712.41,28.36L730.22,28.48L748.03,29.27L765.84,28.81L783.66,26.97L801.47,27.13L819.28,29.77L837.09,26.8L872.71,26.1L890.52,26.32L908.33,24.97L926.14,25.01L943.95,25.1L961.76,26.73L979.57,24.71L997.38,24.8L1033,23.72L1033,266.42L712.41,267.02L694.6,267.21L534.31,267.28L516.5,267.3L142.48,267.63L124.67,267.5L0,268.32Z" style="fill: rgb(220, 96, 39); fill-opacity: 0.5; stroke-width: 0;"/></g></g><g class="errorbars"/><g class="lines"><path class="js-line" d="M0,268.32L124.67,267.5L142.48,267.63L516.5,267.3L534.31,267.28L694.6,267.21L712.41,267.02L1033,266.42" style="vector-effect: non-scaling-stroke; fill: none; stroke: rgb(145, 195, 74); stroke-opacity: 1; stroke-width: 2px; opacity: 1;"/></g><g class="points"/><g class="text"/></g><g class="trace scatter tracee088ea" style="stroke-miterlimit: 2;"><g class="fills"><g><path class="js-fill" d="M0,34.25L17.81,30.89L35.62,29.12L71.24,27.46L89.05,29.08L106.86,26.16L124.67,25.09L160.29,23.62L178.1,24.6L195.91,25.61L213.72,23.88L231.53,24.68L249.34,24.63L267.16,27.08L284.97,23.77L320.59,26.5L338.4,25.67L356.21,24.08L374.02,25.84L391.83,23.13L409.64,21.71L445.26,22.25L463.07,21.93L480.88,23.33L498.69,22.21L534.31,21.62L552.12,22.92L569.93,22.29L587.74,23.36L641.17,20.45L658.98,20.33L676.79,26.07L694.6,23.12L712.41,19.78L730.22,20.01L748.03,20.8L765.84,20.28L783.66,18.48L801.47,18.7L819.28,21.27L837.09,18.3L854.9,17.54L872.71,17.56L890.52,17.79L908.33,16.41L943.95,16.57L961.76,18.26L979.57,16.25L997.38,16.24L1015.19,15.3L1033,15.15L1033,23.72L997.38,24.8L979.57,24.71L961.76,26.73L943.95,25.1L926.14,25.01L908.33,24.97L890.52,26.32L872.71,26.1L837.09,26.8L819.28,29.77L801.47,27.13L783.66,26.97L765.84,28.81L748.03,29.27L730.22,28.48L712.41,28.36L676.79,34.37L658.98,28.85L641.17,28.94L623.36,29.42L587.74,31.71L569.93,30.74L552.12,31.41L534.31,30.12L498.69,30.54L480.88,31.74L463.07,30.43L445.26,30.73L409.64,30.22L391.83,31.5L374.02,34.13L356.21,32.46L338.4,34.01L320.59,34.82L284.97,32.2L267.16,35.42L249.34,32.99L231.53,33.06L213.72,32.31L195.91,33.84L178.1,33.02L160.29,32.13L124.67,33.53L106.86,34.59L89.05,37.38L71.24,35.73L35.62,37.48L17.81,39.19L0,42.36Z" style="fill: rgb(254, 222, 0); fill-opacity: 0.5; stroke-width: 0;"/></g></g><g class="errorbars"/><g class="lines"><path class="js-line" d="M0,42.36L17.81,39.19L35.62,37.48L71.24,35.73L89.05,37.38L106.86,34.59L124.67,33.53L160.29,32.13L178.1,33.02L195.91,33.84L213.72,32.31L231.53,33.06L249.34,32.99L267.16,35.42L284.97,32.2L320.59,34.82L338.4,34.01L356.21,32.46L374.02,34.13L391.83,31.5L409.64,30.22L445.26,30.73L463.07,30.43L480.88,31.74L498.69,30.54L534.31,30.12L552.12,31.41L569.93,30.74L587.74,31.71L623.36,29.42L641.17,28.94L658.98,28.85L676.79,34.37L712.41,28.36L730.22,28.48L748.03,29.27L765.84,28.81L783.66,26.97L801.47,27.13L819.28,29.77L837.09,26.8L872.71,26.1L890.52,26.32L908.33,24.97L926.14,25.01L943.95,25.1L961.76,26.73L979.57,24.71L997.38,24.8L1033,23.72" style="vector-effect: non-scaling-stroke; fill: none; stroke: rgb(220, 96, 39); stroke-opacity: 1; stroke-width: 2px; opacity: 1;"/></g><g class="points"/><g class="text"/></g><g class="trace scatter trace8ccfba" style="stroke-miterlimit: 2;"><g class="fills"/><g class="errorbars"/><g class="lines"><path class="js-line" d="M0,34.25L17.81,30.89L35.62,29.12L71.24,27.46L89.05,29.08L106.86,26.16L124.67,25.09L160.29,23.62L178.1,24.6L195.91,25.61L213.72,23.88L231.53,24.68L249.34,24.63L267.16,27.08L284.97,23.77L320.59,26.5L338.4,25.67L356.21,24.08L374.02,25.84L391.83,23.13L409.64,21.71L445.26,22.25L463.07,21.93L480.88,23.33L498.69,22.21L534.31,21.62L552.12,22.92L569.93,22.29L587.74,23.36L641.17,20.45L658.98,20.33L676.79,26.07L694.6,23.12L712.41,19.78L730.22,20.01L748.03,20.8L765.84,20.28L783.66,18.48L801.47,18.7L819.28,21.27L837.09,18.3L854.9,17.54L872.71,17.56L890.52,17.79L908.33,16.41L943.95,16.57L961.76,18.26L979.57,16.25L997.38,16.24L1015.19,15.3L1033,15.15" style="vector-effect: non-scaling-stroke; fill: none; stroke: rgb(254, 222, 0); stroke-opacity: 1; stroke-width: 2px; opacity: 1;"/></g><g class="points"/><g class="text"/></g></g></g><g class="overplot"/><path class="xlines-above crisp" d="M85.5,403.75H1120" style="fill: none; stroke-width: 1.5px; stroke: rgb(0, 0, 0); stroke-opacity: 1;"/><path class="ylines-above crisp" d="M86.25,100V403" style="fill: none; stroke-width: 1.5px; stroke: rgb(0, 0, 0); stroke-opacity: 1;"/><g class="overlines-above"/><g class="xaxislayer-above"><path class="xtick ticks crisp" d="M0,404.5v5" transform="translate(122.62,0)" style="stroke: rgb(68, 68, 68); stroke-opacity: 1; stroke-width: 1px;"/><path class="xtick ticks crisp" d="M0,404.5v5" transform="translate(247.29,0)" style="stroke: rgb(68, 68, 68); stroke-opacity: 1; stroke-width: 1px;"/><path class="xtick ticks crisp" d="M0,404.5v5" transform="translate(371.97,0)" style="stroke: rgb(68, 68, 68); stroke-opacity: 1; stroke-width: 1px;"/><path class="xtick ticks crisp" d="M0,404.5v5" transform="translate(496.64,0)" style="stroke: rgb(68, 68, 68); stroke-opacity: 1; stroke-width: 1px;"/><path class="xtick ticks crisp" d="M0,404.5v5" transform="translate(621.31,0)" style="stroke: rgb(68, 68, 68); stroke-opacity: 1; stroke-width: 1px;"/><path class="xtick ticks crisp" d="M0,404.5v5" transform="translate(745.98,0)" style="stroke: rgb(68, 68, 68); stroke-opacity: 1; stroke-width: 1px;"/><path class="xtick ticks crisp" d="M0,404.5v5" transform="translate(870.66,0)" style="stroke: rgb(68, 68, 68); stroke-opacity: 1; stroke-width: 1px;"/><path class="xtick ticks crisp" d="M0,404.5v5" transform="translate(995.33,0)" style="stroke: rgb(68, 68, 68); stroke-opacity: 1; stroke-width: 1px;"/><path class="xtick ticks crisp" d="M0,404.5v5" transform="translate(1120,0)" style="stroke: rgb(68, 68, 68); stroke-opacity: 1; stroke-width: 1px;"/><g class="xtick"><text text-anchor="middle" x="0" y="431.1" transform="translate(122.62,0)" style="font-family: TheSans; font-size: 18px; fill: rgb(36, 36, 36); fill-opacity: 1; white-space: pre;"><tspan class="line" dy="0em" x="0" y="431.1">Sep 18</tspan><tspan class="line" dy="1.3em" x="0" y="431.1">2022</tspan></text></g><g class="xtick"><text text-anchor="middle" x="0" y="431.1" transform="translate(247.29,0)" style="font-family: TheSans; font-size: 18px; fill: rgb(36, 36, 36); fill-opacity: 1; white-space: pre;">Sep 25</text></g><g class="xtick"><text text-anchor="middle" x="0" y="431.1" transform="translate(371.97,0)" style="font-family: TheSans; font-size: 18px; fill: rgb(36, 36, 36); fill-opacity: 1; white-space: pre;">Oct 2</text></g><g class="xtick"><text text-anchor="middle" x="0" y="431.1" transform="translate(496.64,0)" style="font-family: TheSans; font-size: 18px; fill: rgb(36, 36, 36); fill-opacity: 1; white-space: pre;">Oct 9</text></g><g class="xtick"><text text-anchor="middle" x="0" y="431.1" transform="translate(621.31,0)" style="font-family: TheSans; font-size: 18px; fill: rgb(36, 36, 36); fill-opacity: 1; white-space: pre;">Oct 16</text></g><g class="xtick"><text text-anchor="middle" x="0" y="431.1" transform="translate(745.98,0)" style="font-family: TheSans; font-size: 18px; fill: rgb(36, 36, 36); fill-opacity: 1; white-space: pre;">Oct 23</text></g><g class="xtick"><text text-anchor="middle" x="0" y="431.1" transform="translate(870.66,0)" style="font-family: TheSans; font-size: 18px; fill: rgb(36, 36, 36); fill-opacity: 1; white-space: pre;">Oct 30</text></g><g class="xtick"><text text-anchor="middle" x="0" y="431.1" transform="translate(995.33,0)" style="font-family: TheSans; font-size: 18px; fill: rgb(36, 36, 36); fill-opacity: 1; white-space: pre;">Nov 6</text></g><g class="xtick"><text text-anchor="middle" x="0" y="431.1" transform="translate(1120,0)" style="font-family: TheSans; font-size: 18px; fill: rgb(36, 36, 36); fill-opacity: 1; white-space: pre;">Nov 13</text></g></g><g class="yaxislayer-above"><path class="ytick ticks crisp" d="M85.5,0h-5" transform="translate(0,403)" style="stroke: rgb(68, 68, 68); stroke-opacity: 1; stroke-width: 1px;"/><path class="ytick ticks crisp" d="M85.5,0h-5" transform="translate(0,318.49)" style="stroke: rgb(68, 68, 68); stroke-opacity: 1; stroke-width: 1px;"/><path class="ytick ticks crisp" d="M85.5,0h-5" transform="translate(0,233.99)" style="stroke: rgb(68, 68, 68); stroke-opacity: 1; stroke-width: 1px;"/><path class="ytick ticks crisp" d="M85.5,0h-5" transform="translate(0,149.48)" style="stroke: rgb(68, 68, 68); stroke-opacity: 1; stroke-width: 1px;"/><g class="ytick"><text text-anchor="end" x="76.9" y="6.3" transform="translate(0,403)" style="font-family: TheSans; font-size: 18px; fill: rgb(36, 36, 36); fill-opacity: 1; white-space: pre;">0</text></g><g class="ytick"><text text-anchor="end" x="76.9" y="6.3" transform="translate(0,318.49)" style="font-family: TheSans; font-size: 18px; fill: rgb(36, 36, 36); fill-opacity: 1; white-space: pre;">500</text></g><g class="ytick"><text text-anchor="end" x="76.9" y="6.3" transform="translate(0,233.99)" style="font-family: TheSans; font-size: 18px; fill: rgb(36, 36, 36); fill-opacity: 1; white-space: pre;">1000</text></g><g class="ytick"><text text-anchor="end" x="76.9" y="6.3" transform="translate(0,149.48)" style="font-family: TheSans; font-size: 18px; fill: rgb(36, 36, 36); fill-opacity: 1; white-space: pre;">1500</text></g></g><g class="overaxes-above"/></g></g><g class="polarlayer"/><g class="ternarylayer"/><g class="geolayer"/><g class="funnelarealayer"/><g class="pielayer"/><g class="treemaplayer"/><g class="sunburstlayer"/><g class="glimages"/><defs id="topdefs-9405e7"><g class="clips"/><clipPath id="legend9405e7"><rect width="558" height="37" x="0" y="0"/></clipPath></defs><g class="layer-above"><g class="imagelayer"/><g class="shapelayer"/></g><g class="infolayer"><g class="legend" pointer-events="all" transform="translate(324.5,39.40000000000001)"><rect class="bg" shape-rendering="crispEdges" width="558" height="37" x="0" y="0" style="stroke: rgb(68, 68, 68); stroke-opacity: 1; fill: rgb(0, 0, 0); fill-opacity: 0; stroke-width: 0px;"/><g class="scrollbox" transform="" clip-path="url('#legend9405e7')"><g class="groups"><g class="traces" transform="translate(0,18.200000000000003)" style="opacity: 1;"><text class="legendtext" text-anchor="start" x="40" y="7.0200000000000005" style="font-family: TheSans; font-size: 18px; fill: rgb(0, 0, 0); fill-opacity: 1; white-space: pre;">Sync committee reward</text><g class="layers"><g class="legendfill"><path class="js-fill" d="M5,-2h30v6h-30z" style="stroke-width: 0; fill: rgb(254, 222, 0); fill-opacity: 0.5;"/></g><g class="legendlines"><path class="js-line" d="M5,-2h30" style="fill: none; stroke: rgb(254, 222, 0); stroke-opacity: 1; stroke-width: 2px;"/></g><g class="legendsymbols"><g class="legendpoints"/></g></g><rect class="legendtoggle" x="0" y="-13.200000000000001" width="213.453125" height="26.400000000000002" style="fill: rgb(0, 0, 0); fill-opacity: 0;"/></g><g class="traces" transform="translate(215.953125,18.200000000000003)" style="opacity: 1;"><text class="legendtext" text-anchor="start" x="40" y="7.0200000000000005" style="font-family: TheSans; font-size: 18px; fill: rgb(0, 0, 0); fill-opacity: 1; white-space: pre;">Attestation reward</text><g class="layers"><g class="legendfill"><path class="js-fill" d="M5,-2h30v6h-30z" style="stroke-width: 0; fill: rgb(220, 96, 39); fill-opacity: 0.5;"/></g><g class="legendlines"><path class="js-line" d="M5,-2h30" style="fill: none; stroke: rgb(220, 96, 39); stroke-opacity: 1; stroke-width: 2px;"/></g><g class="legendsymbols"><g class="legendpoints"/></g></g><rect class="legendtoggle" x="0" y="-13.200000000000001" width="175.953125" height="26.400000000000002" style="fill: rgb(0, 0, 0); fill-opacity: 0;"/></g><g class="traces" transform="translate(394.40625,18.200000000000003)" style="opacity: 1;"><text class="legendtext" text-anchor="start" x="40" y="7.0200000000000005" style="font-family: TheSans; font-size: 18px; fill: rgb(0, 0, 0); fill-opacity: 1; white-space: pre;">Proposer reward</text><g class="layers"><g class="legendfill"><path class="js-fill" d="M5,-2h30v6h-30z" style="stroke-width: 0; fill: rgb(145, 195, 74); fill-opacity: 0.5;"/></g><g class="legendlines"><path class="js-line" d="M5,-2h30" style="fill: none; stroke: rgb(145, 195, 74); stroke-opacity: 1; stroke-width: 2px;"/></g><g class="legendsymbols"><g class="legendpoints"/></g></g><rect class="legendtoggle" x="0" y="-13.200000000000001" width="160.96875" height="26.400000000000002" style="fill: rgb(0, 0, 0); fill-opacity: 0;"/></g></g></g><rect class="scrollbar" rx="20" ry="3" width="0" height="0" x="0" y="0" style="fill: rgb(128, 139, 164); fill-opacity: 1;"/></g><g class="g-gtitle"/><g class="g-xtitle"><text class="xtitle" x="603.5" y="487.5" text-anchor="middle" style="font-family: TheSans; font-size: 20px; fill: rgb(36, 36, 36); opacity: 1; font-weight: normal; white-space: pre;">Date</text></g><g class="g-ytitle" transform="translate(6.109375,0)"><text class="ytitle" transform="rotate(-90,11.890625,251.5)" x="11.890625" y="251.5" text-anchor="middle" style="font-family: TheSans; font-size: 20px; fill: rgb(36, 36, 36); opacity: 1; font-weight: normal; white-space: pre;">Reward (Ether)</text></g></g></svg>